<?xml version="1.0" encoding="UTF-8" standalone="no"?>
<!-- Created with Pixodesk SVG (https://pixodesk.com) -->
<svg xmlns="http://www.w3.org/2000/svg" viewBox="0 0 800 800" text-rendering="geometricPrecision" shape-rendering="geometricPrecision">
  <path fill="#2c57a1" transform="translate(525.5625, 40.3438)" d="M0,0C2.3406,1.6759,27.7575,18.6563,28.4375,18.6563C32.2896,22.7059,36.9654,32.77,37.5039,33.9063C38.6906,37.4017,38.7024,40.4072,38.6875,44.0938C38.6927,45.3712,38.6978,46.6487,38.7031,47.9648C38.4437,51.5699,37.7148,54.2962,36.4375,57.6563C36.1075,58.8525,35.7775,60.0487,35.4375,61.2813C34.6388,63.977,-351.8825,612.6563,-352.5625,612.6563C-352.8925,613.6463,-354.8825,615.6563,-355.5625,615.6563C-355.8925,616.9763,-361.5625,621.9763,-361.5625,622.6563C-366.1407,625.2907,-370.1607,626.2695,-375.375,626.5313C-376.0799,626.5717,-376.7848,626.6121,-377.511,626.6538C-383.1948,626.8696,-387.4218,625.8758,-392.5625,623.6563C-393.4287,623.5119,-394.295,623.3675,-395.1875,623.2188C-398.7363,622.3783,-429.8825,599.6563,-430.5625,599.6563C-432.0352,598.2656,-432.0352,598.2656,-433.625,596.4063C-434.4158,595.5013,-434.4158,595.5013,-435.2227,594.5781C-436.617,592.5781,-438.8825,588.6563,-439.5625,588.6563C-439.7069,587.8931,-440.5258,583.5745,-441.5625,580.6563C-441.8413,577.4529,-441.84,574.2454,-441.875,571.0313C-441.904,570.1663,-441.933,569.3013,-441.9629,568.4102C-442.0284,561.6925,-440.8925,555.1063,-436.052,550.0913C-435.5605,549.6177,-56.4329,11.0537,-54.0039,8.3555C-52.4117,6.5894,-52.4117,6.5894,-51.0625,3.9688C-48.5212,0.0509,-39.9025,-4.6638,-39.5625,-5.3438C-25.9572,-12.1464,-11.521,-8.2895,0,0z"/>
  <path fill="#d34f3d" transform="translate(187, 36)" d="M0,0C1.4518,0.0326,19.3718,0.8309,26.8359,4.1602C39.2656,5.9855,48.32,13.34,49,13C49.6187,13.7116,57.32,19,58,19C58,19.66,64.8992,24.5102,67,27C67,27.66,75.4025,37.4025,76.125,38.125C78.0176,40.0176,82.5325,46.5325,83,47C83,47.66,86.32,55,87,55C90.7005,61.7402,92.854,68.6351,95,76C95.33,76.99,101.345,98.5176,96.5341,112.5815C95.177,124.9166,91.6623,131.6654,91,134C90,137,82.01,149.97,81,153C80.34,153,68,167.32,68,168C62.5238,173,51,180.32,51,181C50.34,181,31.9685,188.7709,30.6875,190.4375C25.1765,195.5403,5.0376,195.7492,4,197C2.3566,197.0985,-0.3899,199.6928,-16.7133,196.4972C-29.1415,194.9656,-41.5163,189.9891,-52,183C-52,182.34,-59.97,176.01,-63,175C-63,174.34,-70.32,167,-71,167C-73.125,165.125,-78.1836,159.3906,-79.4375,157.25C-80.8221,154.9315,-86.32,147,-87,147C-87.6188,145.2675,-90.5456,137.866,-92,135.125C-95.2543,128.791,-96.9724,122.0218,-98,115C-98.33,114.01,-99.212,95.882,-99.2246,94.5977C-99.2355,87.7099,-98.7371,81.6601,-97,75C-97,74.01,-92.505,63.02,-92.25,62C-91.2222,58.3735,-89.6899,55.1885,-87.9414,51.8594C-86.8897,49.8701,-79.9769,39.6803,-79,38C-76.8157,35.1331,-69,26.68,-69,26C-67.68,25.67,-57,17.68,-57,17C-56.34,17,-43.0224,8.9539,-41,8C-40.0306,7.4431,-28,3.68,-28,3C-18.5398,0.9831,-9.7152,-0.4654,0,0z"/>
  <path fill="#2c57a1" transform="translate(349.2153, 566.823)" d="M178.8863,-0.3133C197.9074,-0.4325,197.9074,-0.4325,206.7847,4.177C208.1084,4.5465,212.1047,8.177,212.7847,8.177C214.5112,10.0754,214.5112,10.0754,216.4097,12.552C217.3571,13.7702,217.3571,13.7702,218.3237,15.0129C219.7847,17.177,221.1047,19.177,221.7847,19.177C225.0329,28.0823,225.2191,36.5498,225.1208,45.8933C225.0971,48.3046,225.1003,50.7148,225.1069,53.1262C225.074,71.743,225.074,71.743,220.7847,78.177C220.1247,78.177,217.7847,82.177,216.7847,84.177C216.1247,84.177,214.7847,85.497,214.7847,86.177C211.0599,88.3975,202.4403,92.1691,201.7477,92.6801C197.6165,94.7671,194.0681,94.596,189.5012,94.5647C188.5628,94.5701,-10.6587,94.6837,-12.8592,94.6942C-39.9191,94.8134,-39.9191,94.8134,-49.5278,87.052C-52.2153,84.177,-54.1953,81.517,-55.2153,81.177C-56.6021,79.0676,-56.6021,79.0676,-57.9028,76.427C-58.3398,75.5659,-58.7768,74.7048,-59.2271,73.8176C-60.259,71.0602,-61.2459,27.2943,-58.2153,19.177C-57.9037,18.2993,-57.5921,17.4216,-57.271,16.5173C-55.8867,13.4485,-49.8953,8.197,-49.2153,7.177C-47.5487,6.5103,-42.8953,3.197,-42.2153,2.177C-39.1748,1.6866,-36.278,1.387,-33.2153,1.177C-32.4301,1.0948,-31.6448,1.0126,-30.8357,0.9279C-20.5741,-0.1052,176.8167,-0.2995,178.8863,-0.3133zM-59.2153,33.177C-59.2153,35.487,-58.8753,33.177,-59.2153,33.177z"/>
</svg>